<svg width="41" height="41" viewBox="0 0 41 41" fill="none" xmlns="http://www.w3.org/2000/svg">
<circle cx="20.5" cy="20.5" r="20.5" fill="#FD8F5F"/>
<path d="M29.33 29.72C29.53 29.82 29.68 29.95 29.78 30.11C29.9 30.27 29.96 30.5 29.96 30.8C29.96 31.18 29.81 31.49 29.51 31.73C29.23 31.95 28.9 32.06 28.52 32.06C28.08 32.06 27.58 31.95 27.02 31.73C25.9 31.23 24.8 30.31 23.72 28.97C22.66 27.61 21.38 25.66 19.88 23.12C18.74 24 17.58 24.82 16.4 25.58C16.4 26 16.41 26.49 16.43 27.05C16.47 27.59 16.49 27.99 16.49 28.25C16.53 29.41 16.55 30.18 16.55 30.56C16.55 30.9 16.44 31.23 16.22 31.55C16 31.85 15.67 32 15.23 32C14.59 32 14.13 31.9 13.85 31.7C13.57 31.48 13.4 31.17 13.34 30.77C13.18 29.77 13.1 28.81 13.1 27.89C13.1 26.85 13.18 25.35 13.34 23.39C13.5 21.51 13.58 20.1 13.58 19.16C13.58 18.8 13.56 18.28 13.52 17.6C13.5 17.06 13.44 16.56 13.34 16.1C13.26 15.46 13.22 15.01 13.22 14.75C13.22 14.11 13.36 13.65 13.64 13.37C13.92 13.09 14.35 12.95 14.93 12.95C15.37 12.95 15.73 13.08 16.01 13.34C16.31 13.58 16.48 13.91 16.52 14.33C16.62 16.03 16.67 17.34 16.67 18.26C16.65 18.76 16.61 19.48 16.55 20.42C16.51 21.34 16.47 21.92 16.43 22.16C17.11 21.78 18.44 20.69 20.42 18.89C22.42 17.07 23.84 15.64 24.68 14.6L25.07 14.15C25.39 13.73 25.66 13.44 25.88 13.28C26.1 13.12 26.4 13.04 26.78 13.04C27.16 13.04 27.5 13.17 27.8 13.43C28.12 13.67 28.28 13.96 28.28 14.3C28.28 14.96 27.94 15.63 27.26 16.31C25.6 18.03 23.94 19.63 22.28 21.11C24.62 25.49 26.97 28.36 29.33 29.72Z" fill="white"/>
</svg>
