<svg width="95" height="23" viewBox="0 0 95 23" fill="none" xmlns="http://www.w3.org/2000/svg">
<path d="M10.247 18C9.925 17.4787 9.54167 16.919 9.097 16.321C8.66767 15.7077 8.19233 15.102 7.671 14.504C7.165 13.8907 6.636 13.308 6.084 12.756C5.532 12.1887 4.98 11.6903 4.428 11.261V18H0.84V2.061H4.428V8.087C5.36333 7.10567 6.29867 6.086 7.234 5.028C8.18467 3.95467 9.06633 2.96567 9.879 2.061H14.134C13.0453 3.349 11.949 4.591 10.845 5.787C9.75633 6.983 8.60633 8.18667 7.395 9.398C8.66767 10.456 9.89433 11.7133 11.075 13.17C12.271 14.6267 13.4133 16.2367 14.502 18H10.247ZM20.0303 15.539C20.6589 15.539 21.1036 15.4777 21.3643 15.355C21.6249 15.2323 21.7553 14.9947 21.7553 14.642C21.7553 14.366 21.5866 14.1283 21.2493 13.929C20.9119 13.7143 20.3983 13.4767 19.7083 13.216C19.1716 13.0167 18.6809 12.8097 18.2363 12.595C17.8069 12.3803 17.4389 12.1273 17.1323 11.836C16.8256 11.5293 16.5879 11.169 16.4193 10.755C16.2506 10.341 16.1663 9.84267 16.1663 9.26C16.1663 8.12533 16.5879 7.22833 17.4313 6.569C18.2746 5.90967 19.4323 5.58 20.9043 5.58C21.6403 5.58 22.3456 5.649 23.0203 5.787C23.6949 5.90967 24.2316 6.04767 24.6303 6.201L24.0323 8.869C23.6336 8.731 23.1966 8.60833 22.7213 8.501C22.2613 8.39367 21.7399 8.34 21.1573 8.34C20.0839 8.34 19.5473 8.639 19.5473 9.237C19.5473 9.375 19.5703 9.49767 19.6163 9.605C19.6623 9.71233 19.7543 9.81967 19.8923 9.927C20.0303 10.019 20.2143 10.1263 20.4443 10.249C20.6896 10.3563 20.9963 10.479 21.3643 10.617C22.1156 10.893 22.7366 11.169 23.2273 11.445C23.7179 11.7057 24.1013 11.997 24.3773 12.319C24.6686 12.6257 24.8679 12.9707 24.9753 13.354C25.0979 13.7373 25.1593 14.182 25.1593 14.688C25.1593 15.884 24.7069 16.7887 23.8023 17.402C22.9129 18.0153 21.6479 18.322 20.0073 18.322C18.9339 18.322 18.0369 18.23 17.3163 18.046C16.6109 17.862 16.1203 17.7087 15.8443 17.586L16.4193 14.803C17.0019 15.033 17.5999 15.217 18.2133 15.355C18.8266 15.4777 19.4323 15.539 20.0303 15.539ZM27.7204 18V0.703999L31.1474 0.151999V5.948C31.3774 5.87133 31.6687 5.80233 32.0214 5.741C32.3894 5.66433 32.742 5.626 33.0794 5.626C34.0607 5.626 34.8734 5.764 35.5174 6.04C36.1767 6.30067 36.698 6.67633 37.0814 7.167C37.48 7.65767 37.756 8.24033 37.9094 8.915C38.078 9.58967 38.1624 10.341 38.1624 11.169V18H34.7354V11.583C34.7354 10.479 34.5897 9.697 34.2984 9.237C34.0224 8.777 33.501 8.547 32.7344 8.547C32.4277 8.547 32.1364 8.57767 31.8604 8.639C31.5997 8.685 31.362 8.73867 31.1474 8.8V18H27.7204ZM44.6913 18H41.2643V5.902H44.6913V18ZM45.0133 2.406C45.0133 3.03467 44.8063 3.533 44.3923 3.901C43.9936 4.25367 43.5183 4.43 42.9663 4.43C42.4143 4.43 41.9313 4.25367 41.5173 3.901C41.1186 3.533 40.9193 3.03467 40.9193 2.406C40.9193 1.77733 41.1186 1.28667 41.5173 0.933999C41.9313 0.565999 42.4143 0.381999 42.9663 0.381999C43.5183 0.381999 43.9936 0.565999 44.3923 0.933999C44.8063 1.28667 45.0133 1.77733 45.0133 2.406ZM47.7977 2.889L51.2247 2.337V5.902H55.3417V8.754H51.2247V13.009C51.2247 13.7297 51.3474 14.3047 51.5927 14.734C51.8534 15.1633 52.3671 15.378 53.1337 15.378C53.5017 15.378 53.8774 15.3473 54.2607 15.286C54.6594 15.2093 55.0197 15.1097 55.3417 14.987L55.8247 17.655C55.4107 17.8237 54.9507 17.9693 54.4447 18.092C53.9387 18.2147 53.3177 18.276 52.5817 18.276C51.6464 18.276 50.8721 18.1533 50.2587 17.908C49.6454 17.6473 49.1547 17.2947 48.7867 16.85C48.4187 16.39 48.1581 15.838 48.0047 15.194C47.8667 14.55 47.7977 13.837 47.7977 13.055V2.889ZM57.1082 12.043C57.1082 10.9697 57.2692 10.0343 57.5912 9.237C57.9286 8.42433 58.3656 7.74967 58.9022 7.213C59.4389 6.67633 60.0522 6.27 60.7422 5.994C61.4476 5.718 62.1682 5.58 62.9042 5.58C64.6216 5.58 65.9786 6.109 66.9752 7.167C67.9719 8.20967 68.4702 9.75067 68.4702 11.79C68.4702 11.9893 68.4626 12.2117 68.4472 12.457C68.4319 12.687 68.4166 12.894 68.4012 13.078H60.6272C60.7039 13.7833 61.0336 14.343 61.6162 14.757C62.1989 15.171 62.9809 15.378 63.9622 15.378C64.5909 15.378 65.2042 15.3243 65.8022 15.217C66.4156 15.0943 66.9139 14.9487 67.2972 14.78L67.7572 17.563C67.5732 17.655 67.3279 17.747 67.0212 17.839C66.7146 17.931 66.3696 18.0077 65.9862 18.069C65.6182 18.1457 65.2196 18.207 64.7902 18.253C64.3609 18.299 63.9316 18.322 63.5022 18.322C62.4136 18.322 61.4629 18.161 60.6502 17.839C59.8529 17.517 59.1859 17.08 58.6492 16.528C58.1279 15.9607 57.7369 15.2937 57.4762 14.527C57.2309 13.7603 57.1082 12.9323 57.1082 12.043ZM65.1582 10.732C65.1429 10.4407 65.0892 10.157 64.9972 9.881C64.9206 9.605 64.7902 9.35967 64.6062 9.145C64.4376 8.93033 64.2152 8.754 63.9392 8.616C63.6786 8.478 63.3489 8.409 62.9502 8.409C62.5669 8.409 62.2372 8.478 61.9612 8.616C61.6852 8.73867 61.4552 8.90733 61.2712 9.122C61.0872 9.33667 60.9416 9.58967 60.8342 9.881C60.7422 10.157 60.6732 10.4407 60.6272 10.732H65.1582ZM70.5399 12.043C70.5399 10.9697 70.7009 10.0343 71.0229 9.237C71.3602 8.42433 71.7972 7.74967 72.3339 7.213C72.8705 6.67633 73.4839 6.27 74.1739 5.994C74.8792 5.718 75.5999 5.58 76.3359 5.58C78.0532 5.58 79.4102 6.109 80.4069 7.167C81.4036 8.20967 81.9019 9.75067 81.9019 11.79C81.9019 11.9893 81.8942 12.2117 81.8789 12.457C81.8635 12.687 81.8482 12.894 81.8329 13.078H74.0589C74.1355 13.7833 74.4652 14.343 75.0479 14.757C75.6305 15.171 76.4125 15.378 77.3939 15.378C78.0225 15.378 78.6359 15.3243 79.2339 15.217C79.8472 15.0943 80.3456 14.9487 80.7289 14.78L81.1889 17.563C81.0049 17.655 80.7595 17.747 80.4529 17.839C80.1462 17.931 79.8012 18.0077 79.4179 18.069C79.0499 18.1457 78.6512 18.207 78.2219 18.253C77.7925 18.299 77.3632 18.322 76.9339 18.322C75.8452 18.322 74.8945 18.161 74.0819 17.839C73.2845 17.517 72.6175 17.08 72.0809 16.528C71.5595 15.9607 71.1685 15.2937 70.9079 14.527C70.6625 13.7603 70.5399 12.9323 70.5399 12.043ZM78.5899 10.732C78.5745 10.4407 78.5209 10.157 78.4289 9.881C78.3522 9.605 78.2219 9.35967 78.0379 9.145C77.8692 8.93033 77.6469 8.754 77.3709 8.616C77.1102 8.478 76.7805 8.409 76.3819 8.409C75.9985 8.409 75.6689 8.478 75.3929 8.616C75.1169 8.73867 74.8869 8.90733 74.7029 9.122C74.5189 9.33667 74.3732 9.58967 74.2659 9.881C74.1739 10.157 74.1049 10.4407 74.0589 10.732H78.5899ZM83.4195 22.255C83.2049 22.255 82.8905 22.232 82.4765 22.186C82.0472 22.14 81.6485 22.0557 81.2805 21.933L81.7405 19.15C81.9705 19.2267 82.1852 19.2803 82.3845 19.311C82.5685 19.3417 82.8062 19.357 83.0975 19.357C83.6342 19.357 84.0099 19.196 84.2245 18.874C84.4392 18.552 84.5465 18.0843 84.5465 17.471V5.902H87.9735V17.563C87.9735 19.1577 87.5825 20.3383 86.8005 21.105C86.0185 21.8717 84.8915 22.255 83.4195 22.255ZM88.2955 2.406C88.2955 3.03467 88.0885 3.533 87.6745 3.901C87.2759 4.25367 86.8005 4.43 86.2485 4.43C85.6965 4.43 85.2135 4.25367 84.7995 3.901C84.4009 3.533 84.2015 3.03467 84.2015 2.406C84.2015 1.77733 84.4009 1.28667 84.7995 0.933999C85.2135 0.565999 85.6965 0.381999 86.2485 0.381999C86.8005 0.381999 87.2759 0.565999 87.6745 0.933999C88.0885 1.28667 88.2955 1.77733 88.2955 2.406ZM94.553 16.183C94.553 16.873 94.3306 17.402 93.886 17.77C93.4566 18.1227 92.966 18.299 92.414 18.299C91.862 18.299 91.3636 18.1227 90.919 17.77C90.4896 17.402 90.275 16.873 90.275 16.183C90.275 15.493 90.4896 14.9717 90.919 14.619C91.3636 14.251 91.862 14.067 92.414 14.067C92.966 14.067 93.4566 14.251 93.886 14.619C94.3306 14.9717 94.553 15.493 94.553 16.183Z" fill="#670000"/>
</svg>
